<?xml version="1.0" encoding="UTF-8" standalone="no"?>
<!-- Created with Inkscape (http://www.inkscape.org/) -->

<svg
   xmlns:dc="http://purl.org/dc/elements/1.1/"
   xmlns:cc="http://creativecommons.org/ns#"
   xmlns:rdf="http://www.w3.org/1999/02/22-rdf-syntax-ns#"
   xmlns:svg="http://www.w3.org/2000/svg"
   xmlns="http://www.w3.org/2000/svg"
   xmlns:sodipodi="http://sodipodi.sourceforge.net/DTD/sodipodi-0.dtd"
   xmlns:inkscape="http://www.inkscape.org/namespaces/inkscape"
   width="500"
   height="500"
   id="svg2"
   version="1.1"
   inkscape:version="0.48.4 r9939"
   sodipodi:docname="carecanary.svg">
  <defs
     id="defs4" />
  <sodipodi:namedview
     id="base"
     pagecolor="#ffffff"
     bordercolor="#666666"
     borderopacity="1.0"
     inkscape:pageopacity="0.0"
     inkscape:pageshadow="2"
     inkscape:zoom="0.98994949"
     inkscape:cx="289.75435"
     inkscape:cy="194.33772"
     inkscape:document-units="px"
     inkscape:current-layer="layer1"
     showgrid="false"
     fit-margin-top="0"
     fit-margin-left="0"
     fit-margin-right="0"
     fit-margin-bottom="0"
     inkscape:window-width="1916"
     inkscape:window-height="1041"
     inkscape:window-x="0"
     inkscape:window-y="18"
     inkscape:window-maximized="0" />
  <metadata
     id="metadata7">
    <rdf:RDF>
      <cc:Work
         rdf:about="">
        <dc:format>image/svg+xml</dc:format>
        <dc:type
           rdf:resource="http://purl.org/dc/dcmitype/StillImage" />
        <dc:title></dc:title>
      </cc:Work>
    </rdf:RDF>
  </metadata>
  <g
     inkscape:label="Layer 1"
     inkscape:groupmode="layer"
     id="layer1"
     transform="translate(0,-552.36218)">
    <path
       style="fill:#ffff00;stroke:#000000;stroke-width:1.69041442999999991px;stroke-linecap:butt;stroke-linejoin:miter;stroke-opacity:1"
       d="m 490.38229,825.3396 c 0,194.3224 -146.70102,191.2486 -233.93797,191.2486 -106.24444,2.2793 -218.727517,7.5631 -251.0137412,-114.40766 -6.42115448,-24.25779 45.4841022,49.22202 56.3500182,17.07576 0,0 -37.063023,-14.22632 -32.443947,-63.18033 0,0 24.719649,34.30543 42.689414,17.07578 17.121211,-63.85251 8.813145,-179.77431 85.706956,-199.73954 18.83621,-25.08798 -23.99796,-34.03319 -23.99796,-34.03319 0,0 39.34486,-21.38816 61.23651,8.37263 1.40073,-31.71197 -51.22728,-40.98183 -51.22728,-40.98183 0,0 45.69698,-22.32275 84.97579,24.00011 8.54243,-28.81054 -56.81012,-52.50586 -56.81012,-52.50586 0,0 100.42585,-20.51586 120.48962,55.53486 0,0 197.98271,60.81283 197.98271,191.54067 z"
       id="path3012"
       inkscape:connector-curvature="0"
       sodipodi:nodetypes="ccssscccccccsc" />
    <path
       style="fill:#000000;stroke:#000000;stroke-width:1px;stroke-linecap:butt;stroke-linejoin:miter;stroke-opacity:1"
       d="m 108.08632,338.37559 c 20.24397,52.53004 55.56915,74.45223 158.59394,64.64976 -112.85,-0.50525 -122.86267,-10.13838 -158.59394,-64.64976 z"
       id="path3022"
       inkscape:connector-curvature="0"
       transform="translate(0,552.36218)"
       sodipodi:nodetypes="ccc" />
    <path
       sodipodi:type="arc"
       style="fill:#000000"
       id="path3024"
       sodipodi:cx="344.9671"
       sodipodi:cy="258.57355"
       sodipodi:rx="7.0710678"
       sodipodi:ry="7.0710678"
       d="m 352.03817,258.57355 a 7.0710678,7.0710678 0 1 1 -14.14214,0 7.0710678,7.0710678 0 1 1 14.14214,0 z"
       transform="translate(2.0203051,553.37233)" />
    <path
       sodipodi:type="arc"
       style="fill:#000000"
       id="path3026"
       sodipodi:cx="431.33514"
       sodipodi:cy="258.06845"
       sodipodi:rx="6.5659914"
       sodipodi:ry="6.5659914"
       d="m 437.90114,258.06845 a 6.5659914,6.5659914 0 1 1 -13.13199,0 6.5659914,6.5659914 0 1 1 13.13199,0 z"
       transform="translate(-15.152288,550.34187)" />
    <path
       style="fill:none;stroke:#000000;stroke-width:1px;stroke-linecap:butt;stroke-linejoin:miter;stroke-opacity:1"
       d="m 357.594,321.203 32.32488,-26.26397 52.52793,27.27412 -43.43655,-12.12183 -20.20306,15.15228 17.1726,-5.05075 61.6193,7.07106 -68.69037,-44.44671 -49.49747,44.44671 36.36549,29.29443 39.39595,-31.31473 -40.40611,16.16244 z"
       id="path3028"
       inkscape:connector-curvature="0"
       transform="translate(0,552.36218)"
       sodipodi:nodetypes="ccccccccccccc" />
  </g>
</svg>
