<?xml version="1.0" encoding="UTF-8" standalone="no"?>
<!-- Created with Inkscape (http://www.inkscape.org/) -->

<svg
   xmlns:dc="http://purl.org/dc/elements/1.1/"
   xmlns:cc="http://creativecommons.org/ns#"
   xmlns:rdf="http://www.w3.org/1999/02/22-rdf-syntax-ns#"
   xmlns:svg="http://www.w3.org/2000/svg"
   xmlns="http://www.w3.org/2000/svg"
   xmlns:sodipodi="http://sodipodi.sourceforge.net/DTD/sodipodi-0.dtd"
   xmlns:inkscape="http://www.inkscape.org/namespaces/inkscape"
   width="500"
   height="500"
   id="svg2"
   version="1.1"
   inkscape:version="0.48.4 r9939"
   sodipodi:docname="carecanary10.svg"
   inkscape:export-filename="/home/christi/Documents/careCanary/happyCarecanary.png"
   inkscape:export-xdpi="91.271919"
   inkscape:export-ydpi="91.271919">
  <defs
     id="defs4" />
  <sodipodi:namedview
     id="base"
     pagecolor="#ffffff"
     bordercolor="#666666"
     borderopacity="1.0"
     inkscape:pageopacity="0.0"
     inkscape:pageshadow="2"
     inkscape:zoom="0.98994949"
     inkscape:cx="-42.752115"
     inkscape:cy="216.73794"
     inkscape:document-units="px"
     inkscape:current-layer="layer3"
     showgrid="false"
     fit-margin-top="0"
     fit-margin-left="0"
     fit-margin-right="0"
     fit-margin-bottom="0"
     inkscape:window-width="1916"
     inkscape:window-height="1041"
     inkscape:window-x="0"
     inkscape:window-y="18"
     inkscape:window-maximized="0" />
  <metadata
     id="metadata7">
    <rdf:RDF>
      <cc:Work
         rdf:about="">
        <dc:format>image/svg+xml</dc:format>
        <dc:type
           rdf:resource="http://purl.org/dc/dcmitype/StillImage" />
        <dc:title></dc:title>
      </cc:Work>
    </rdf:RDF>
  </metadata>
  <g
     transform="translate(0,-552.36218)"
     id="g3851"
     inkscape:groupmode="layer"
     inkscape:label="Layer 1 copy">
    <path
       sodipodi:nodetypes="ccssscccccccsc"
       inkscape:connector-curvature="0"
       id="path3853"
       d="m 490.38229,825.3396 c 0,194.3224 -146.70102,191.2486 -233.93797,191.2486 -106.24444,2.2793 -218.727517,7.5631 -251.0137412,-114.40766 -6.42115448,-24.25779 45.4841022,49.22202 56.3500182,17.07576 0,0 -37.063023,-14.22632 -32.443947,-63.18033 0,0 24.719649,34.30543 42.689414,17.07578 17.121211,-63.85251 8.813145,-179.77431 85.706956,-199.73954 18.83621,-25.08798 -23.99796,-34.03319 -23.99796,-34.03319 0,0 39.34486,-21.38816 61.23651,8.37263 1.40073,-31.71197 -51.22728,-40.98183 -51.22728,-40.98183 0,0 45.69698,-22.32275 84.97579,24.00011 8.54243,-28.81054 -56.81012,-52.50586 -56.81012,-52.50586 0,0 100.42585,-20.51586 120.48962,55.53486 0,0 197.98271,60.81283 197.98271,191.54067 z"
       style="fill:#ffff00;stroke:#2b1100;stroke-width:7;stroke-linecap:butt;stroke-linejoin:miter;stroke-opacity:1;stroke-miterlimit:4;stroke-dasharray:none;fill-opacity:1" />
    <path
       sodipodi:nodetypes="cscc"
       inkscape:connector-curvature="0"
       id="path3861"
       d="m 369.68891,879.27473 c 0,0 11.55595,-17.44907 19.55872,-20.06006 21.06175,-6.87164 63.96731,9.91134 63.96731,9.91134 z"
       style="fill:#2b1100;stroke:none;stroke-width:1px;stroke-linecap:butt;stroke-linejoin:miter;stroke-opacity:1" />
    <path
       inkscape:transform-center-y="2.5938374"
       inkscape:transform-center-x="4.8080493"
       sodipodi:nodetypes="ccsc"
       inkscape:connector-curvature="0"
       id="path3863"
       d="m 370.29681,879.84466 c 0,0 23.34965,5.39327 47.39238,2.17314 0,0 -13.60292,11.21397 -24.60796,11.07281 -8.78427,-0.11268 -22.78442,-13.24595 -22.78442,-13.24595 z"
       style="fill:#2b1100;fill-opacity:1;stroke:none" />
  </g>
  <g
     inkscape:groupmode="layer"
     id="layer2"
     inkscape:label="Layer">
    <path
       style="fill:#ffcc00;fill-opacity:0.60189574;stroke:none"
       d="m 68.928571,438.23742 c 0,0 295.393319,60.97189 409.285709,-82.85715 -12.53617,37.59953 -30.52905,63.22036 -58.57142,81.42858 -38.34144,24.89551 -88.61021,25.95972 -134.28572,27.85714 -72.61611,3.01657 -173,3.71355 -216.428569,-26.42857 z"
       id="path3830"
       inkscape:connector-curvature="0"
       sodipodi:nodetypes="ccaac" />
    <path
       style="fill:#ffcc00;fill-opacity:0.60189574;stroke:none"
       d="m 413.06419,331.64249 c 0,0 -17.50973,8.8132 -42.1047,-3.78756 5.2779,6.91235 5.43057,6.72361 9.41628,9.79912 3.02413,2.33352 10.95298,5.54833 16.64165,4.64782 6.34253,-1.00401 10.63502,-4.32519 16.04677,-10.65938 z"
       id="path3830-1-5"
       inkscape:connector-curvature="0"
       sodipodi:nodetypes="ccsac" />
    <path
       style="fill:#ffcc00;fill-opacity:0.60189574;stroke:none"
       d="m 452.90901,316.78714 c 0,0 -67.10043,1.11461 -81.98151,9.7382 10.74392,0.85574 12.59314,-0.4263 20.82664,-0.93603 8.23351,-0.50974 18.82366,-1.86225 28.18529,-3.18769 11.03799,-1.56277 26.26595,-3.1296 32.96958,-5.61448 z"
       id="path3830-1-5-2"
       inkscape:connector-curvature="0"
       sodipodi:nodetypes="cczac" />
    <path
       style="fill:#ffcc00;fill-opacity:0.60189574;stroke:none"
       d="m 61.271698,373.48454 c 0,0 -15.395358,3.2176 -53.600478,-28.45667 -10.4259252,8.73182 2.49871,14.69973 6.4121,19.90322 5.304632,7.05338 10.812838,9.95774 17.660283,11.62808 9.614005,2.34521 23.034556,3.18796 29.528095,-3.07463 z"
       id="path3830-1-1"
       inkscape:connector-curvature="0"
       sodipodi:nodetypes="ccsac" />
    <path
       style="fill:#ffcc00;fill-opacity:0.60189574;stroke:none"
       d="m 62.755021,327.97001 c 0,0 -9.453144,3.2176 -32.912067,-28.45667 -6.401785,8.73182 1.534272,14.69973 3.937194,19.90322 3.25718,7.05338 6.63936,9.95774 10.843867,11.62808 5.903245,2.34521 14.143807,3.18796 18.131006,-3.07463 z"
       id="path3830-1-1-4"
       inkscape:connector-curvature="0"
       sodipodi:nodetypes="ccsac" />
    <path
       style="fill:#ffcc00;fill-opacity:0.60189574;stroke:none"
       d="m 161.18942,83.710607 c 0,0 10.52744,-0.999522 33.52694,24.843773 7.64572,-5.35678 -0.50904,-10.708995 -2.71051,-14.75527 -2.98413,-5.484768 -6.43107,-8.023557 -10.86898,-9.793984 -6.23095,-2.48573 -15.12054,-4.219475 -19.94745,-0.294519 z"
       id="path3830-1-1-7"
       inkscape:connector-curvature="0"
       sodipodi:nodetypes="ccsac" />
    <path
       style="fill:#ffcc00;fill-opacity:0.60189574;stroke:none"
       d="m 162.70456,53.398459 c 0,0 34.54873,4.717506 66.20535,31.118471 -1.27271,-5.937101 -2.99484,-12.120598 -7.2094,-17.559001 -5.71291,-7.371811 -12.31185,-10.784075 -20.80793,-13.163621 -11.92872,-3.34095 -28.94723,-5.671193 -38.18802,-0.395849 z"
       id="path3830-1-1-7-9"
       inkscape:connector-curvature="0"
       sodipodi:nodetypes="ccsac" />
    <path
       style="fill:#ffcc00;fill-opacity:0.60189574;stroke:none"
       d="m 191.03898,26.062626 c 0,0 59.66756,2.035006 98.10223,56.009903 C 283.72782,66.567426 281.26217,61.748492 275.8673,53.817797 268.55446,43.067651 259.34815,37.440659 247.19544,32.875618 230.13269,26.46617 205.42705,20.563835 191.03898,26.062626 z"
       id="path3830-1-1-7-6"
       inkscape:connector-curvature="0"
       sodipodi:nodetypes="ccsac" />
  </g>
  <g
     inkscape:groupmode="layer"
     id="layer3"
     inkscape:label="heart"
     style="display:inline">
    <path
       style="fill:#ff0000;fill-opacity:0.55450236;stroke:none"
       d="m 274.80497,368.05935 c -51.85653,-15.57462 -73.48542,10.13965 -96.84359,16.80717 -20.51963,5.85725 -50.72528,-20.7104 -46.32398,-41.13187 -14.42482,1.45373 -42.129449,-4.89127 -32.291406,-26.69888 14.954696,-33.14952 158.084636,-59.82103 175.458976,51.02358 z"
       id="path4018"
       inkscape:connector-curvature="0"
       sodipodi:nodetypes="cscsc" />
    <path
       style="fill:#800000;fill-opacity:0.1658768;stroke:none"
       d="m 178.39286,385.17857 c -14.98444,2.18442 -25.2351,-2.78849 -41.92442,-21.12526 46.0101,16.13581 120.16858,-41.43037 138.29696,4.11765 -52.60888,-16.61926 -76.84241,12.04528 -96.37254,17.00761 z"
       id="path4811"
       inkscape:connector-curvature="0"
       sodipodi:nodetypes="cccc" />
    <path
       style="fill:#800000;fill-opacity:0.1658768;stroke:none;display:inline"
       d="m 108.21626,339.32041 c -9.900569,-4.38158 -14.719995,-10.86971 -7.82577,-23.3981 5.22429,16.89342 35.62508,17.81351 31.53798,27.32141 -15.45132,0.92161 -13.81164,0.45826 -23.71221,-3.92331 z"
       id="path4811-0"
       inkscape:connector-curvature="0"
       sodipodi:nodetypes="cccc" />
  </g>
  <g
     inkscape:label="Layer 1"
     inkscape:groupmode="layer"
     id="layer1"
     transform="translate(0,-552.36218)">
    <path
       style="fill:none;stroke:#2b1100;stroke-width:7;stroke-linecap:butt;stroke-linejoin:miter;stroke-opacity:1;stroke-miterlimit:4;stroke-dasharray:none"
       d="m 490.38229,825.3396 c 0,194.3224 -146.70102,191.2486 -233.93797,191.2486 -106.24444,2.2793 -218.727517,7.5631 -251.0137412,-114.40766 -6.42115448,-24.25779 45.4841022,49.22202 56.3500182,17.07576 0,0 -37.063023,-14.22632 -32.443947,-63.18033 0,0 24.719649,34.30543 42.689414,17.07578 17.121211,-63.85251 8.813145,-179.77431 85.706956,-199.73954 18.83621,-25.08798 -23.99796,-34.03319 -23.99796,-34.03319 0,0 39.34486,-21.38816 61.23651,8.37263 1.40073,-31.71197 -51.22728,-40.98183 -51.22728,-40.98183 0,0 45.69698,-22.32275 84.97579,24.00011 8.54243,-28.81054 -56.81012,-52.50586 -56.81012,-52.50586 0,0 100.42585,-20.51586 120.48962,55.53486 0,0 197.98271,60.81283 197.98271,191.54067 z"
       id="path3012"
       inkscape:connector-curvature="0"
       sodipodi:nodetypes="ccssscccccccsc" />
    <path
       style="fill:#2b1100;stroke:none;stroke-width:1px;stroke-linecap:butt;stroke-linejoin:miter;stroke-opacity:1"
       d="m 369.68891,879.27473 c 0,0 11.55595,-17.44907 19.55872,-20.06006 21.06175,-6.87164 63.96731,9.91134 63.96731,9.91134 z"
       id="path3826"
       inkscape:connector-curvature="0"
       sodipodi:nodetypes="cscc" />
    <path
       style="fill:#2b1100;fill-opacity:1;stroke:none"
       d="m 370.29681,879.84466 c 0,0 28.90549,-3.19303 47.39238,2.17314 0,0 -13.60292,11.21397 -24.60796,11.07281 -8.78427,-0.11268 -22.78442,-13.24595 -22.78442,-13.24595 z"
       id="path3828"
       inkscape:connector-curvature="0"
       sodipodi:nodetypes="ccsc"
       inkscape:transform-center-x="4.8080493"
       inkscape:transform-center-y="2.5938374" />
    <path
       transform="matrix(4.8704794,0,0,4.3494532,-1340.8694,-289.79138)"
       d="m 349.76533,258.57355 a 4.7982244,4.7982244 0 1 1 -9.59645,0 4.7982244,4.7982244 0 1 1 9.59645,0 z"
       sodipodi:ry="4.7982244"
       sodipodi:rx="4.7982244"
       sodipodi:cy="258.57355"
       sodipodi:cx="344.9671"
       id="path3859"
       style="fill:#2b1100;fill-opacity:1"
       sodipodi:type="arc" />
    <path
       sodipodi:type="arc"
       style="fill:#ffff00;fill-opacity:1;stroke:none"
       id="path4491"
       sodipodi:cx="364.28571"
       sodipodi:cy="275"
       sodipodi:rx="4.2857141"
       sodipodi:ry="3.5714285"
       d="m 368.57142,275 a 4.2857141,3.5714285 0 1 1 -8.57143,0 4.2857141,3.5714285 0 1 1 8.57143,0 z"
       transform="matrix(2.4166667,0,0,2.8,-531.42857,54.505045)" />
    <path
       transform="matrix(4.275021,0,0,3.9028594,-1038.313,-191.09974)"
       d="m 349.76533,258.57355 a 4.7982244,4.7982244 0 1 1 -9.59645,0 4.7982244,4.7982244 0 1 1 9.59645,0 z"
       sodipodi:ry="4.7982244"
       sodipodi:rx="4.7982244"
       sodipodi:cy="258.57355"
       sodipodi:cx="344.9671"
       id="path3859-0"
       style="fill:#2b1100;fill-opacity:1"
       sodipodi:type="arc" />
    <path
       sodipodi:type="arc"
       style="fill:#ffff00;fill-opacity:1;stroke:none"
       id="path4491-8"
       sodipodi:cx="364.28571"
       sodipodi:cy="275"
       sodipodi:rx="4.2857141"
       sodipodi:ry="3.5714285"
       d="m 368.57142,275 a 4.2857141,3.5714285 0 1 1 -8.57143,0 4.2857141,3.5714285 0 1 1 8.57143,0 z"
       transform="matrix(2.4166667,0,0,2.8,-436.7857,37.362179)" />
  </g>
  <g
     inkscape:groupmode="layer"
     id="layer4"
     inkscape:label="wing"
     style="display:none">
    <path
       style="fill:#ffcc00;fill-opacity:0.60189574;stroke:none"
       d="m 263.94936,398.98261 c 0,0 -130.77791,17.00052 -157.89873,-62.99269 3.72506,18.36879 9.17742,35.01949 20.6516,44.55044 15.55335,12.91928 32.30452,20.55534 50.66983,24.07387 28.40351,5.44172 67.53804,5.83921 86.5773,-5.63162 z"
       id="path3830-1"
       inkscape:connector-curvature="0"
       sodipodi:nodetypes="ccsac" />
    <path
       sodipodi:nodetypes="ccc"
       inkscape:connector-curvature="0"
       id="path3855"
       d="m 105.34589,334.1801 c 20.24397,52.53004 55.56915,74.45223 158.59394,64.64976 -112.85,-0.50525 -122.86267,-10.13838 -158.59394,-64.64976 z"
       style="fill:#000000;stroke:#2b1100;stroke-width:1px;stroke-linecap:butt;stroke-linejoin:miter;stroke-opacity:1" />
  </g>
</svg>
